# xmcd
#
# Track frame offsets:
#	150
#	13423
#	25890
#	40708
#
# Disc length: 718 seconds
#
# Revision: 2
# Processed by: cddbd v1.5.2PL0 Copyright (c) Steve Scherf et al.
# Submitted via: audiograbber 1.83.01
#
DISCID=2902cc04
DTITLE=Mermaid Union - Kountry Kitsch
DYEAR=2005
DGENRE=Countrytrash
TTITLE0=I Walk Alone
TTITLE1=Side By Side
TTITLE2=Don't Take Your Guns To Town
TTITLE3=Prince Of The Rodeo
EXTD=www.mermaid-union.de\n\nMermaid Union Are: \nMadita B - Vocals, Guitar\nMe
EXTD=lanie H. - Vocals, Guitar, Accordion, Kazoo\n\n
EXTT0=(D. Hidalgo/L. Pérez)
EXTT1=(A. Stern)
EXTT2=(J. Cash)
EXTT3=(Turbonegro)
PLAYORDER=
